<?xml version="1.0" encoding="utf-8"?>
<!-- Generator: Adobe Illustrator 19.1.0, SVG Export Plug-In . SVG Version: 6.00 Build 0)  -->
<svg version="1.1" id="Layer_1" xmlns="http://www.w3.org/2000/svg" xmlns:xlink="http://www.w3.org/1999/xlink" x="0px" y="0px"
	 viewBox="-343 345 32 32" style="enable-background:new -343 345 32 32;" xml:space="preserve">
<style type="text/css">
	.st0{fill:#FFFFFF;}
	.st1{opacity:0.6;fill:#FFFFFF;enable-background:new    ;}
	.st2{opacity:0.3;fill:#FFFFFF;}
	.st3{opacity:0.3;fill:#FFFFFF;enable-background:new    ;}
</style>
<circle class="st0" cx="-328" cy="361.4" r="2.3"/>
<circle class="st0" cx="-335.4" cy="355.1" r="4.7"/>
<circle class="st0" cx="-338" cy="365.6" r="5"/>
<circle class="st0" cx="-318.2" cy="358.9" r="4.8"/>
<circle class="st0" cx="-328" cy="370.2" r="5"/>
<circle class="st0" cx="-317.7" cy="368.6" r="4.2"/>
<circle class="st1" cx="-326.7" cy="360.4" r="2.3"/>
<circle class="st1" cx="-334.1" cy="354.1" r="4.7"/>
<circle class="st1" cx="-336.7" cy="364.6" r="5"/>
<circle class="st1" cx="-316.9" cy="357.9" r="4.8"/>
<circle class="st1" cx="-326.7" cy="369.2" r="5"/>
<circle class="st1" cx="-316.4" cy="367.6" r="4.2"/>
<circle class="st1" cx="38.3" cy="577.4" r="2.3"/>
<circle class="st1" cx="30.9" cy="571.1" r="4.7"/>
<circle class="st1" cx="28.3" cy="581.6" r="5"/>
<circle class="st1" cx="48.1" cy="574.9" r="4.8"/>
<circle class="st1" cx="38.3" cy="586.2" r="5"/>
<circle class="st1" cx="48.6" cy="584.6" r="4.2"/>
<circle class="st1" cx="38.3" cy="577.4" r="2.3"/>
<circle class="st1" cx="30.9" cy="571.1" r="4.7"/>
<circle class="st1" cx="28.3" cy="581.6" r="5"/>
<circle class="st1" cx="48.1" cy="574.9" r="4.8"/>
<circle class="st1" cx="38.3" cy="586.2" r="5"/>
<circle class="st1" cx="48.6" cy="584.6" r="4.2"/>
<circle class="st2" cx="-324.1" cy="357" r="2.3"/>
<circle class="st2" cx="-331.5" cy="350.7" r="4.7"/>
<circle class="st2" cx="-334.1" cy="361.2" r="5"/>
<circle class="st2" cx="-314.3" cy="354.5" r="4.8"/>
<circle class="st2" cx="-324.1" cy="365.8" r="5"/>
<circle class="st2" cx="-313.8" cy="364.2" r="4.2"/>
<circle class="st3" cx="-322.8" cy="356" r="2.3"/>
<circle class="st3" cx="-330.2" cy="349.7" r="4.7"/>
<circle class="st3" cx="-332.8" cy="360.2" r="5"/>
<circle class="st3" cx="-313" cy="353.5" r="4.8"/>
<circle class="st3" cx="-322.8" cy="364.8" r="5"/>
<circle class="st3" cx="-312.5" cy="363.2" r="4.2"/>
</svg>
